<svg width="1675" height="385" viewBox="0 0 1675 385" fill="none" xmlns="http://www.w3.org/2000/svg">
<path d="M305.286 380H196.4L125.843 243.525L97.2786 260.615V380H0.354736V23.0664H97.2786V178.096C101.348 170.283 105.986 162.471 111.195 154.658C116.566 146.846 121.774 139.44 126.82 132.441L201.771 23.0664H307.24L194.691 182.979L305.286 380ZM607.532 103.389V380H535.511L523.548 345.576H517.933C512.236 354.854 504.993 362.422 496.204 368.281C487.578 373.978 477.975 378.128 467.396 380.732C456.816 383.499 445.83 384.883 434.437 384.883C416.37 384.883 400.013 381.383 385.365 374.385C370.879 367.386 359.323 356.4 350.697 341.426C342.233 326.452 338.001 307.165 338.001 283.564V103.389H433.46V254.512C433.46 272.415 435.983 286.087 441.029 295.527C446.237 304.805 454.7 309.443 466.419 309.443C478.463 309.443 487.741 306.188 494.251 299.678C500.924 293.167 505.563 283.564 508.167 270.869C510.771 258.174 512.073 242.712 512.073 224.482V103.389H607.532ZM879.017 295.039C879.017 312.617 875.111 328.161 867.298 341.67C859.486 355.179 846.953 365.758 829.7 373.408C812.611 381.058 790.068 384.883 762.073 384.883C742.379 384.883 724.72 383.825 709.095 381.709C693.633 379.593 677.926 375.524 661.976 369.502V293.086C679.391 301.061 697.132 306.839 715.198 310.42C733.265 313.838 747.506 315.547 757.923 315.547C768.665 315.547 776.478 314.408 781.361 312.129C786.406 309.688 788.929 306.107 788.929 301.387C788.929 297.318 787.22 293.9 783.802 291.133C780.547 288.203 774.606 284.867 765.98 281.123C757.516 277.38 745.553 272.334 730.091 265.986C714.792 259.639 702.015 252.721 691.761 245.234C681.67 237.747 674.101 228.796 669.056 218.379C664.01 207.962 661.488 195.186 661.488 180.049C661.488 153.031 671.904 132.686 692.738 119.014C713.571 105.342 741.159 98.5059 775.501 98.5059C793.73 98.5059 810.902 100.54 827.015 104.609C843.128 108.516 859.811 114.294 877.064 121.943L850.941 183.467C837.269 177.282 823.434 172.318 809.437 168.574C795.439 164.831 784.29 162.959 775.99 162.959C768.503 162.959 762.725 163.936 758.656 165.889C754.587 167.842 752.552 170.69 752.552 174.434C752.552 177.852 753.935 180.863 756.702 183.467C759.632 186.071 765.085 189.082 773.06 192.5C781.035 195.918 792.672 200.719 807.972 206.904C824.085 213.415 837.35 220.413 847.767 227.9C858.346 235.225 866.159 244.176 871.204 254.756C876.413 265.335 879.017 278.763 879.017 295.039ZM1027.7 0.117188V54.0723C1027.7 74.5801 1027.21 91.8327 1026.23 105.83C1025.42 119.665 1024.61 130.244 1023.79 137.568H1028.19C1034.21 127.965 1041.04 120.316 1048.69 114.619C1056.34 108.923 1064.81 104.854 1074.09 102.412C1083.36 99.8079 1093.45 98.5059 1104.36 98.5059C1122.59 98.5059 1139.03 102.005 1153.68 109.004C1168.49 116.003 1180.29 126.989 1189.08 141.963C1197.86 156.774 1202.26 176.143 1202.26 200.068V380H1106.31V229.121C1106.31 210.729 1103.63 196.895 1098.26 187.617C1092.88 178.177 1084.58 173.457 1073.35 173.457C1061.8 173.457 1052.68 176.794 1046.01 183.467C1039.34 189.977 1034.62 199.58 1031.85 212.275C1029.08 224.808 1027.7 240.189 1027.7 258.418V380H932.24V0.117188H1027.7ZM1402.21 98.5059C1437.2 98.5059 1464.55 107.214 1484.24 124.629C1503.94 141.882 1513.78 166.54 1513.78 198.604V380H1447.62L1429.31 343.379H1427.36C1419.54 353.145 1411.49 361.12 1403.19 367.305C1395.05 373.327 1385.69 377.721 1375.11 380.488C1364.53 383.418 1351.59 384.883 1336.29 384.883C1320.34 384.883 1306.02 381.628 1293.32 375.117C1280.63 368.607 1270.62 358.76 1263.29 345.576C1255.97 332.393 1252.31 315.71 1252.31 295.527C1252.31 265.905 1262.56 243.932 1283.07 229.609C1303.58 215.286 1333.28 207.23 1372.18 205.439L1418.32 203.975V200.068C1418.32 187.699 1415.23 178.91 1409.05 173.701C1403.02 168.493 1394.89 165.889 1384.63 165.889C1373.73 165.889 1361.52 167.842 1348.01 171.748C1334.66 175.492 1321.24 180.374 1307.73 186.396L1280.14 123.408C1296.09 115.27 1314.16 109.085 1334.34 104.854C1354.52 100.622 1377.15 98.5059 1402.21 98.5059ZM1418.81 256.465L1396.84 257.441C1379.26 258.092 1366.89 261.185 1359.73 266.719C1352.73 272.09 1349.23 279.821 1349.23 289.912C1349.23 299.352 1351.75 306.351 1356.8 310.908C1361.85 315.303 1368.52 317.5 1376.82 317.5C1388.38 317.5 1398.22 313.838 1406.36 306.514C1414.66 299.189 1418.81 289.668 1418.81 277.949V256.465ZM1674.18 380H1578.72V0.117188H1674.18V380Z" fill="white"/>
</svg>
